<svg xmlns="http://www.w3.org/2000/svg" width="592" height="109" viewBox="0 0 592 109" fill="none">
<path d="M25.2324 19.4442C30.0151 12.9942 37.0528 12.3687 43.7556 11.0198C50.4565 9.67122 57.1288 8.07994 63.8906 7.16352C70.3666 6.28584 75.9835 8.14803 80.3254 13.6084C85.9481 20.6796 91.9071 27.488 97.8396 34.3067C103.011 40.2506 105.182 46.8471 102.733 54.5562C100.028 63.0721 96.9636 71.4836 94.5509 80.0795C92.2854 88.1515 86.9339 92.3402 79.1289 93.9105C70.3519 95.6762 61.5764 97.4998 52.7344 98.875C46.9305 99.7777 41.3898 97.6917 37.5587 93.5993C30.3972 85.9495 23.6774 77.8347 17.3449 69.4805C13.7998 64.8037 11.8998 59.1967 13.9851 53.0218C17.7222 41.9555 21.3694 30.8588 25.2324 19.4442ZM71.825 74.2935C72.0673 74.1228 72.2817 73.9223 72.8709 73.3508C73.0657 73.0599 73.2604 72.7689 73.7519 72.0751C73.9072 71.7741 73.9891 71.4544 74.5884 70.6803C74.9993 69.9603 75.4664 69.2663 75.8121 68.5163C78.8438 61.939 76.6722 58.3749 69.4574 59.1341C63.4275 59.7685 57.5027 61.4356 51.5468 62.7176C49.8239 63.0885 47.8267 63.2847 46.5217 64.2937C42.4738 67.4234 43.8769 71.7069 50.3949 75.9219C57.4174 80.1727 64.3755 79.8973 70.6111 74.989C70.9193 74.8871 71.1937 74.7273 71.825 74.2935ZM38.3206 46.9875C35.2325 46.9137 32.8442 48.1913 33.2085 51.4475C33.409 53.24 34.9678 55.8122 36.4468 56.2553C37.7966 56.6597 40.6032 55.0964 41.4511 53.6359C42.8979 51.144 42.0882 48.5213 38.3206 46.9875ZM75.8342 47.9359C78.7525 48.2873 81.4613 47.7204 81.7118 44.3703C81.811 43.0438 80.0188 40.4232 79.0478 40.4039C76.8709 40.3606 74.669 41.5782 72.4773 42.2824C73.3332 44.12 74.1891 45.9575 75.8342 47.9359Z" fill="#DD6461"/>
<path d="M448 36.02C448.002 32.6914 448.102 29.8548 447.981 27.0276C447.851 23.9533 448.779 21.4485 452.136 21.4718C455.466 21.495 457.033 23.752 456.996 27.1428C456.937 32.6403 457.206 38.1497 456.933 43.6339C456.726 47.7724 458.203 49.2716 462.354 49.0658C468.005 48.7857 473.685 48.8641 479.344 49.0408C482.75 49.1471 484.176 47.9563 484.043 44.4385C483.849 39.281 483.901 34.1071 484.064 28.9471C484.12 27.1837 484.376 25.0905 485.376 23.792C486.293 22.6018 488.52 21.4931 489.831 21.7998C491.097 22.0961 492.612 24.1499 492.814 25.5996C493.271 28.8701 492.997 32.2444 492.998 35.5764C493.002 50.072 493.005 64.5675 492.991 79.063C492.988 81.911 493.371 85.032 488.969 84.9561C484.818 84.8846 484.128 81.9953 484.056 78.8327C483.925 73.0039 483.889 67.1678 484.033 61.3402C484.113 58.0977 482.831 56.8919 479.624 56.9688C473.462 57.1166 467.294 57.0941 461.131 56.9805C458.162 56.9258 456.913 58.0674 456.979 61.0845C457.099 66.5801 456.986 72.0804 457.003 77.5786C457.015 81.2069 457.187 84.9529 451.97 84.9299C446.747 84.9069 448.069 80.8794 448.047 78.0029C447.943 64.1746 448 50.3451 448 36.02Z" fill="white"/>
<path d="M174.983 26.4853C174.995 38.9329 174.737 50.9381 175.058 62.9279C175.616 83.7943 157.105 89.6913 142.24 84.0865C133.785 80.8985 130.322 74.1936 130.096 65.8306C129.754 53.175 130.061 40.5029 129.965 27.8388C129.941 24.5221 130.393 21.3714 134.302 21.3478C138.515 21.3224 139.001 24.7677 138.999 28.1585C138.99 39.6568 138.974 51.1553 139.01 62.6535C139.039 72.0586 144.287 78.2597 152.543 77.6817C160.712 77.1099 166.294 72.1384 166.067 62.4522C165.79 50.6273 165.818 38.7839 166.221 26.9658C166.288 25.0049 168.627 22.017 170.478 21.4935C172.939 20.7978 175.097 22.8665 174.983 26.4853Z" fill="white"/>
<path d="M562.246 41.819C576.359 33.772 589.628 44.7305 588.984 58.5646C588.753 63.5139 589.121 68.6629 587.862 73.3583C584.824 84.6962 574.945 89.0641 564.131 84.5019C562.914 83.9884 561.773 83.2953 561.851 83.3359C558.207 83.8069 555.051 85.183 553.497 84.1498C551.866 83.0654 551.135 79.6797 551.105 77.2862C550.907 61.3143 551.001 45.3387 551.007 29.3643C551.007 28.2004 550.634 26.7487 551.181 25.9319C552.354 24.183 554.016 22.7622 555.478 21.207C556.953 22.7469 559.424 24.1255 559.704 25.8589C560.362 29.9167 559.829 34.1534 560.088 38.2983C560.165 39.5384 561.268 40.7143 562.246 41.819ZM561.453 52.326C561.399 59.0193 560.661 65.8183 561.67 72.3474C562.012 74.5654 566.544 76.9782 569.552 77.7174C572.888 78.5375 577.063 77.3658 578.081 73.3874C579.29 68.6679 579.616 63.683 579.939 58.7877C580.241 54.2158 578.982 50.2114 574.225 48.1978C569.16 46.0539 565.198 47.6276 561.453 52.326Z" fill="white"/>
<path d="M308.944 50.318C311.836 59.8992 312.022 69.0005 307.588 77.7568C303.822 85.1948 294.294 88.3194 286.624 84.7868C284.103 83.6254 282.154 82.2705 279.049 84.5322C276.17 86.629 273.084 84.4427 273.066 80.7579C272.979 62.4598 272.942 44.1597 273.196 25.8646C273.217 24.3537 275.537 22.8747 276.789 21.3809C278.183 22.9008 280.63 24.3252 280.778 25.958C281.28 31.5024 280.97 37.1205 280.97 43.0096C295.157 36.2194 303.453 38.4226 308.944 50.318ZM294.65 77.6081C296.211 76.4101 298.098 75.4672 299.274 73.9669C303.02 69.189 303.384 55.7568 299.258 51.2651C297.206 49.0314 293.071 47.047 290.349 47.5408C287.362 48.0827 283.78 51.107 282.521 53.9601C280.945 57.5353 280.869 62.0874 281.208 66.1285C281.947 74.9197 285.8 78.165 294.65 77.6081Z" fill="white"/>
<path d="M249.577 57.9921C253.694 57.2266 254.448 53.4851 251.561 50.1238C248.254 46.2743 243.884 46.629 239.57 47.3869C237.646 47.725 235.874 49.1758 233.972 49.3189C232.268 49.4471 229.563 48.9596 228.979 47.8558C228.344 46.6535 229.079 43.4534 230.192 42.8078C237.42 38.6173 245.279 37.7898 253.124 40.7346C259.982 43.3086 261.898 49.2575 261.986 55.9939C262.046 60.6514 261.778 65.325 262.085 69.963C262.264 72.6608 263.488 75.2747 263.868 77.9789C264.143 79.9415 263.806 81.9901 263.742 84.0004C261.609 83.9302 259.475 83.8766 257.342 83.7844C255.569 83.7078 253.753 83.2852 252.035 83.5426C247.673 84.1961 243.361 85.7902 239.018 85.8308C231.76 85.8988 226.341 80.8138 226.017 74.6932C225.5 64.9438 228.597 60.4985 237.295 59.0692C241.199 58.4277 245.193 58.3365 249.577 57.9921ZM234.044 72.4007C234.428 77.6302 238.557 78.2772 242.304 78.4204C246.719 78.5892 250.905 77.3123 252.922 72.6464C255.313 67.1175 253.925 64.9215 247.87 65.0583C244.916 65.125 241.725 65.2085 239.109 66.3537C237.049 67.2554 235.706 69.7949 234.044 72.4007Z" fill="white"/>
<path d="M426.32 83.2791C424.143 87.9772 422.472 92.523 420.052 96.6268C417.609 100.769 411.565 102.525 407.322 100.676C406.289 100.226 405.022 98.236 405.277 97.3687C405.713 95.8807 407.005 94.0896 408.387 93.5231C417.266 89.8842 418.836 86.4655 415.241 77.3585C411.407 67.645 407.522 57.9514 403.664 48.2473C402.474 45.2541 400.963 41.8117 405.215 40.3271C409.145 38.9548 410.759 42.1233 411.938 45.2677C415.072 53.6256 418.224 61.9769 421.957 71.8938C425.03 63.6478 427.576 56.7886 430.144 49.9375C430.9 47.9195 431.878 45.9702 432.469 43.9079C433.354 40.8251 435.098 39.1151 438.275 40.4167C441.504 41.7395 441.169 44.3796 440.097 47.1423C436.44 56.5677 432.839 66.0153 429.235 75.4611C428.289 77.9392 427.408 80.4416 426.32 83.2791Z" fill="white"/>
<path d="M216.901 46.1069C216.334 49.9273 214.25 50.0366 211.387 49.2906C207.728 48.3373 203.999 47.4264 200.249 47.1166C196.939 46.8431 193.564 48.017 193.251 51.9038C192.908 56.1583 196.347 57.3472 199.815 57.8873C203.082 58.3961 206.442 58.4343 209.65 59.1655C216.126 60.6417 219.865 65.0751 219.957 70.8424C220.049 76.585 215.774 82.9591 210.371 84.6649C202.007 87.3053 193.859 86.2922 186.375 81.9276C184.747 80.978 184.285 78.0299 183.285 76.0022C185.486 75.5054 187.791 74.3304 189.866 74.6496C194.534 75.3677 199.034 77.2418 203.705 77.8461C207.143 78.2908 210.391 76.9064 210.92 72.6626C211.463 68.3031 208.415 67.3982 205.081 66.8466C201.333 66.2265 197.544 65.7786 193.848 64.93C188.895 63.7929 185.432 59.8302 185.035 55.3274C184.395 48.0853 186.5 43.5808 191.748 41.1356C199.271 37.6306 206.667 38.9077 213.855 42.1069C215.147 42.682 215.892 44.488 216.901 46.1069Z" fill="white"/>
<path d="M513.115 71.2577C514.855 76.4531 518.434 78.6373 523.218 77.8063C527.848 77.002 530.966 74.0755 531.177 68.9875C531.501 61.1963 531.723 53.401 532.01 45.6082C532.1 43.1705 531.549 40.1921 535.348 40.1272C539.124 40.0627 540.006 42.5753 539.999 45.7951C539.975 56.7888 540.106 67.7848 539.896 78.7745C539.857 80.7823 538.891 84.0801 537.65 84.455C535.72 85.0379 533.188 83.6251 530.224 82.8871C528.176 83.649 525.197 85.3324 522.032 85.8272C511.945 87.4043 504.391 81.0229 504.072 70.7058C503.814 62.3851 504.032 54.0502 504.004 45.7217C503.994 42.7468 504.743 40.276 508.225 40.1327C512.116 39.9727 512.874 42.8989 512.93 45.8495C513.09 54.1752 513.035 62.505 513.115 71.2577Z" fill="white"/>
<path d="M390.001 58.0286C390.009 62.682 389.93 66.844 390.053 71.0001C390.149 74.2453 391.193 76.5057 395.064 77.2603C396.896 77.6176 399.43 80.003 399.67 81.7422C400.179 85.4342 396.761 84.9297 394.345 84.9828C385.163 85.1844 382.022 82.1015 382.004 72.9262C381.989 65.9382 381.972 58.9501 382.01 51.9624C382.024 49.3186 382.033 47.0369 378.33 46.7773C377.23 46.7001 375.634 44.8221 375.438 43.5834C375.287 42.6351 376.907 40.5192 377.87 40.4362C381.875 40.0908 382.014 37.647 382.063 34.5654C382.114 31.3189 380.731 26.4114 385.872 26.3675C391.418 26.3202 389.96 31.4556 389.911 34.8017C389.856 38.5607 390.937 40.1283 394.967 40.2308C396.618 40.2729 398.212 42.6188 399.831 43.9167C398.267 44.9422 396.678 46.8649 395.144 46.8228C390.765 46.7027 389.579 48.6559 389.975 52.5462C390.143 54.1928 390.002 55.8709 390.001 58.0286Z" fill="white"/>
<path d="M347.001 53.0002C347.002 59.1571 347.056 64.8147 346.985 70.4708C346.943 73.8792 347.388 76.5717 351.53 77.5499C352.877 77.8681 353.732 80.2685 354.811 81.7164C353.235 82.8072 351.73 84.703 350.069 84.852C342.124 85.5643 338.455 82.572 338.195 73.8732C337.734 58.414 337.875 42.9269 338.265 27.4641C338.317 25.3955 340.954 22.2283 342.98 21.6612C345.641 20.9164 347.046 23.5635 347.017 26.5453C346.933 35.1962 346.996 43.8485 347.001 53.0002Z" fill="white"/>
<path d="M362.23 41.4518C367.397 39.3292 369.764 40.4425 369.867 45.3585C370.111 57.0093 370.13 68.6745 369.745 80.3175C369.692 81.9061 367.013 83.9373 365.125 84.6749C364.37 84.9699 361.29 82.3413 361.263 81.0041C361.014 68.3615 361.188 55.7104 361.281 43.0621C361.284 42.6252 361.717 42.1915 362.23 41.4518Z" fill="white"/>
<path d="M328 68.9818C327.977 72.9622 328.141 76.4611 327.871 79.9262C327.651 82.7523 326.496 85.0738 322.966 84.9482C319.479 84.8241 319.052 82.3886 319.042 79.7726C318.995 68.3232 319.028 56.8734 319.014 45.4238C319.01 42.3635 320.076 40.1201 323.49 40.1162C327.046 40.1122 327.849 42.841 327.906 45.5879C328.067 53.2178 327.986 60.8527 328 68.9818Z" fill="white"/>
<path d="M366.585 21.4072C368.201 23.7748 369.949 25.8987 370.486 28.294C370.684 29.1798 368.207 31.3944 366.645 31.7864C363.831 32.4928 360.761 32.0192 360.168 28.3096C359.441 23.7652 361.821 21.5555 366.585 21.4072Z" fill="white"/>
<path d="M326.76 30.9524C322.825 32.4801 319.139 32.9805 318.313 28.1681C317.998 26.3343 319.589 23.2747 321.226 22.2812C322.6 21.4474 325.906 22.123 327.283 23.3424C329.593 25.3875 329.586 28.3362 326.76 30.9524Z" fill="white"/>
<path d="M49.9667 75.4208C43.8769 71.7069 42.4739 67.4235 46.5218 64.2937C47.8268 63.2847 49.8239 63.0885 51.5469 62.7176C57.5027 61.4356 63.4276 59.7685 69.4575 59.1341C76.6723 58.3749 78.8439 61.939 75.8122 68.5164C75.4665 69.2663 74.9993 69.9603 74.3209 70.8693C74.0533 71.0584 74.0508 70.9785 74.0155 70.5939C72.4232 68.5995 70.831 65.5968 69.3159 65.6352C64.3212 65.7618 59.2005 66.5086 54.4527 68.0298C52.5561 68.6375 51.5057 71.8861 50.0394 74.3043C49.9946 74.9243 49.9807 75.1725 49.9667 75.4208Z" fill="#623534"/>
<path d="M38.712 47.0658C42.0883 48.5209 42.8979 51.1436 41.4512 53.6355C40.6032 55.0959 37.7967 56.6592 36.4468 56.2548C34.9678 55.8117 33.409 53.2395 33.2085 51.4471C32.8443 48.1909 35.2325 46.9133 38.712 47.0658Z" fill="#633534"/>
<path d="M75.4389 47.865C74.1884 45.957 73.3325 44.1195 72.4766 42.282C74.6683 41.5778 76.8702 40.3602 79.0471 40.4035C80.0181 40.4228 81.8103 43.0434 81.7111 44.3698C81.4606 47.72 78.7518 48.2868 75.4389 47.865Z" fill="#633534"/>
<path d="M50.1802 75.6708C49.98 75.172 49.9939 74.9237 50.3507 74.4854C56.9744 78.7712 63.4934 76.8089 70.0436 75.0416C70.0809 75.074 70.1553 75.1391 70.1553 75.1391C64.3748 79.8967 57.4168 80.1722 50.1802 75.6708Z" fill="#7C3E3D"/>
<path d="M74.0255 71.0871C73.9892 71.4544 73.9073 71.7742 73.469 72.1334C73.1861 72.1917 72.9129 71.9092 73.0727 71.72C73.4687 71.2925 73.7415 71.1084 74.0508 70.9785C74.0508 70.9785 74.0533 71.0584 74.0255 71.0871Z" fill="#7C3E3D"/>
<path d="M73.3199 72.3348C73.2598 72.7689 73.065 73.0598 72.5215 73.3036C72.0643 73.1186 71.9559 72.9808 72.0081 72.6688C72.394 72.2708 72.6418 72.0756 72.9122 71.9092C72.9122 71.9092 73.1854 72.1916 73.3199 72.3348Z" fill="#7C3E3D"/>
<path d="M72.3209 73.4738C72.2819 73.922 72.0675 74.1225 71.4942 74.2418C71.1633 74.1903 70.8812 73.881 71.0247 73.6921C71.3736 73.2612 71.6004 73.0411 71.8483 72.8428C71.9567 72.9805 72.0651 73.1183 72.3209 73.4738Z" fill="#7C3E3D"/>
<path d="M71.298 74.3497C71.193 74.7269 70.9186 74.8866 70.3828 75.0639C70.1553 75.1392 70.0809 75.0741 70.1475 74.8239C70.3955 74.3037 70.6176 74.0727 70.8803 73.8809C70.8803 73.8809 71.1624 74.1902 71.298 74.3497Z" fill="#7C3E3D"/>
<path d="M71.0242 73.6924C70.618 74.0731 70.396 74.3041 70.1106 74.7919C63.4937 76.8095 56.9748 78.7718 50.3818 74.1142C51.5054 71.8861 52.5558 68.6374 54.4524 68.0297C59.2002 66.5085 64.3208 65.7617 69.3155 65.6351C70.8307 65.5967 72.4229 68.5995 74.0152 70.5939C73.7411 71.1083 73.4684 71.2924 73.0724 71.7199C72.6422 72.0756 72.3944 72.2707 72.0085 72.6688C71.5999 73.0413 71.3732 73.2615 71.0242 73.6924Z" fill="#AA4F4F"/>
</svg>